<svg id="Layer_1" data-name="Layer 1" xmlns="http://www.w3.org/2000/svg" viewBox="0 0 512 512"><defs><style>.cls-1{fill:#636b83;}</style></defs><path class="cls-1" d="M0,219.2V431.7C0,446,11.62,458,26.5,458.7c48.82,2.5,153.7,12.6,213.5,53.2V245.2C181.4,205.5,80,194.8,29.84,192,13.59,191.1,0,203.6,0,219.2ZM482.2,192c-50.09,2.85-151.3,13.47-209.1,53.09-1,.11-1.1.21-1.1.41V512c60-40.39,164.7-50.76,213.5-53.28,14.9-.82,26.5-12.82,26.5-27V219.2C512,203.6,498.4,191.1,482.2,192ZM352,96a96,96,0,1,0-96,96A96,96,0,0,0,352,96Z"/></svg>