<svg id="Layer_1" data-name="Layer 1" xmlns="http://www.w3.org/2000/svg" viewBox="0 0 482.58 512"><defs><style>.cls-1{fill:#636b83;}</style></defs><path class="cls-1" d="M495.9,166.6c3.3,8.6.5,18.3-6.3,24.6l-43.3,39.4a190.6,190.6,0,0,1,0,50.8l43.3,39.4c6.8,6.3,9.6,16,6.3,24.6a253.86,253.86,0,0,1-15.7,34.3l-4.7,8.1a263.48,263.48,0,0,1-22.1,31.3,22.87,22.87,0,0,1-24.5,6.8l-55.7-17.8c-13.4,10.3-29.1,18.9-44,25.5l-12.5,57.1c-2,9-9,15.4-18.2,17.8a261.31,261.31,0,0,1-43.4,3.5,255.76,255.76,0,0,1-41.6-3.5c-9.2-2.4-16.2-8.8-18.2-17.8l-12.5-57.1a196.54,196.54,0,0,1-44-25.5L83.14,425.9a22.83,22.83,0,0,1-24.51-6.8,262.41,262.41,0,0,1-22.11-31.3l-4.68-8.1a249.41,249.41,0,0,1-15.78-34.3c-3.24-8.6-.51-18.3,6.35-24.6l43.26-39.4a194,194,0,0,1,0-50.8L22.41,191.2c-6.86-6.3-9.59-15.9-6.35-24.6a250.6,250.6,0,0,1,15.78-34.3l4.67-8.1A259.06,259.06,0,0,1,58.63,93a22.71,22.71,0,0,1,24.51-6.81L138.8,103.9a192.31,192.31,0,0,1,44-25.47l12.5-57.1A22.69,22.69,0,0,1,213.5,3.51a259.06,259.06,0,0,1,85,0,22.69,22.69,0,0,1,18.2,17.82l12.5,57.1c14.9,6.53,30.6,15.13,44,25.47l55.7-17.76A22.76,22.76,0,0,1,453.4,93a258.9,258.9,0,0,1,22.1,31.25l4.7,8.1a253.86,253.86,0,0,1,15.7,34.3ZM256,336c44.2,0,80-35.8,80-80.9,0-43.3-35.8-80-80-80s-80,36.7-80,80C176,300.2,211.8,336,256,336Z" transform="translate(-14.7)"/></svg>