<svg id="Layer_1" data-name="Layer 1" xmlns="http://www.w3.org/2000/svg" viewBox="0 0 512 480"><defs><style>.cls-1{fill:#636b83;}</style></defs><path class="cls-1" d="M0,416a32,32,0,0,1,32-32H86.66A79.94,79.94,0,0,1,160,336c32.8,0,60.1,19.7,73.3,48H480a32,32,0,0,1,0,64H233.3c-13.2,28.3-40.5,48-73.3,48a79.94,79.94,0,0,1-73.34-48H32A32,32,0,0,1,0,416Zm192,0a32,32,0,1,0-32,32A32,32,0,0,0,192,416ZM352,176c32.8,0,60.1,19.7,73.3,48H480a32,32,0,0,1,0,64H425.3c-13.2,28.3-40.5,48-73.3,48a79.84,79.84,0,0,1-73.3-48H32a32,32,0,0,1,0-64H278.7A79.84,79.84,0,0,1,352,176Zm32,80a32,32,0,1,0-32,32A32,32,0,0,0,384,256ZM480,64a32,32,0,0,1,0,64H265.3c-13.2,28.3-40.5,48-73.3,48a79.84,79.84,0,0,1-73.3-48H32a32,32,0,0,1,0-64h86.7A79.92,79.92,0,0,1,192,16c32.8,0,60.1,19.75,73.3,48ZM160,96a32,32,0,1,0,32-32A32,32,0,0,0,160,96Z" transform="translate(0 -16)"/></svg>