<svg id="Layer_1" data-name="Layer 1" xmlns="http://www.w3.org/2000/svg" viewBox="0 0 512.02 512.88"><defs><style>.cls-1{fill:#636b83;}</style></defs><path class="cls-1" d="M256,159.1a95,95,0,0,0-95.1,95.1c0,52.12,41.2,96.9,95.1,96.9s95.1-43,95.1-95.1S309,159.1,256,159.1ZM509.3,347l-63.2-91.9,63.15-91a15.27,15.27,0,0,0-9.83-23.72l-109-19.7-19.7-109A15.26,15.26,0,0,0,347,1.85l-91,64L164.1,2.74a15.26,15.26,0,0,0-23.72,9.82l-18.78,109-109,19.7C1.63,143.2-3.6,155.9,2.74,164.1L65.89,256,2.74,347a15.26,15.26,0,0,0,9.82,23.72l109,19.7,19.7,109A15.26,15.26,0,0,0,165,509.25l91-63.15,91,63.15a15.26,15.26,0,0,0,23.72-9.82l19.7-109,109-19.7A15.28,15.28,0,0,0,509.3,347ZM256,383.1a127.1,127.1,0,0,1,0-254.2c69.79,0,127.1,57.3,127.1,127.1A126.46,126.46,0,0,1,256,383.1Z" transform="translate(0 0.89)"/></svg>